<?xml version="1.0" standalone="no"?>
<!DOCTYPE svg PUBLIC "-//W3C//DTD SVG 20010904//EN"
 "http://www.w3.org/TR/2001/REC-SVG-20010904/DTD/svg10.dtd">
<svg version="1.0" xmlns="http://www.w3.org/2000/svg"
 width="2000.000000pt" height="2000.000000pt" viewBox="0 0 2000.000000 2000.000000"
 preserveAspectRatio="xMidYMid meet">
<metadata>
Created by potrace 1.14, written by Peter Selinger 2001-2017
</metadata>
<g transform="translate(0.000000,2000.000000) scale(0.100000,-0.100000)"
fill="#000000" stroke="none">
<path d="M30 10119 l0 -5689 2165 0 2165 0 0 180 0 180 -1985 0 -1985 0 0
5330 0 5330 9610 0 9610 0 0 -5330 0 -5330 -1985 0 -1985 0 0 -180 0 -180
2163 3 2162 2 2 5686 3 5686 -9970 0 -9970 0 0 -5688z"/>
<path d="M16575 11965 c-80 -15 -125 -38 -175 -88 -47 -48 -83 -118 -99 -195
-17 -84 -15 -2490 3 -2557 29 -110 89 -185 183 -232 50 -24 71 -28 161 -30
125 -3 205 21 272 83 97 89 123 168 125 374 l0 145 34 3 c40 4 47 -4 50 -63 1
-25 11 -80 21 -123 56 -219 181 -355 374 -406 80 -20 267 -19 350 4 225 60
381 227 459 490 22 75 32 113 52 220 19 99 26 442 11 580 -26 248 -121 489
-243 615 -127 132 -270 188 -476 184 -314 -5 -465 -131 -575 -479 -16 -52 -32
-103 -33 -113 -2 -10 -8 -19 -14 -20 -6 -1 -10 238 -10 643 -1 460 -5 659 -14
693 -23 94 -85 188 -152 231 -67 43 -202 61 -304 41z m955 -1750 c150 -25 211
-94 213 -240 1 -144 -71 -220 -228 -241 -52 -8 -226 -4 -274 5 -119 24 -185
87 -198 191 -18 138 29 228 139 265 83 29 243 38 348 20z"/>
<path d="M6740 11820 c-57 -10 -144 -55 -183 -93 -77 -78 -117 -187 -111 -306
10 -181 111 -302 284 -340 44 -10 213 -8 256 2 106 26 196 105 235 205 29 75
32 222 6 302 -36 112 -116 189 -230 220 -64 18 -189 23 -257 10z"/>
<path d="M2017 11793 c-1 -1 -29 -3 -62 -4 -138 -6 -255 -85 -318 -213 -70
-142 -53 -383 36 -513 69 -100 176 -153 317 -158 69 -2 75 -4 81 -26 11 -37
10 -59 -2 -59 -19 0 -103 -63 -152 -114 -79 -84 -141 -185 -207 -341 -24 -56
-48 -154 -69 -284 -12 -72 -12 -379 0 -466 18 -130 50 -239 101 -343 69 -141
154 -228 288 -295 126 -63 223 -87 420 -103 107 -10 920 -10 1018 -1 301 28
465 186 476 459 11 273 -138 471 -389 516 -50 9 -245 9 -305 0 -146 -22 -311
-85 -555 -213 -128 -67 -171 -77 -199 -49 -35 35 -38 55 -38 318 0 317 0 318
10 312 5 -3 19 -7 33 -10 44 -9 62 -14 264 -65 290 -74 368 -86 527 -84 183 2
305 59 362 171 49 97 32 250 -37 335 -108 132 -375 148 -757 47 -67 -17 -261
-65 -363 -89 l-37 -9 3 187 c3 207 8 229 65 268 l34 22 479 1 c263 0 493 3
511 6 144 25 235 89 290 202 31 65 32 71 32 192 0 107 -3 134 -24 184 -27 71
-96 144 -163 174 -98 43 -127 45 -915 46 -415 0 -754 0 -755 -1z"/>
<path d="M11970 11789 c-42 -9 -104 -37 -145 -64 -74 -50 -130 -144 -143 -242
-10 -76 -8 -1940 2 -2018 13 -93 15 -107 25 -150 62 -275 256 -415 611 -442
112 -9 1025 -9 1118 0 321 30 486 209 476 514 -9 247 -143 410 -379 461 -16 4
-91 6 -165 6 -108 0 -151 -5 -214 -22 -75 -22 -247 -101 -386 -178 -172 -96
-205 -103 -244 -51 -21 28 -21 32 -22 955 -1 972 0 966 -45 1053 -39 77 -126
143 -225 172 -55 16 -205 20 -264 6z"/>
<path d="M8242 10975 c-320 -66 -558 -238 -702 -508 -39 -74 -84 -195 -95
-256 -3 -19 -8 -37 -10 -41 -8 -12 -18 -149 -19 -250 -4 -418 181 -757 513
-940 74 -40 215 -93 281 -105 19 -4 42 -8 50 -10 41 -9 163 -18 230 -18 435
-1 790 173 875 427 17 54 22 146 11 213 -4 24 -7 45 -7 48 1 13 -42 101 -69
140 -66 96 -191 145 -349 139 -65 -3 -118 -13 -221 -45 -122 -37 -147 -42
-260 -45 -91 -3 -141 1 -185 12 -62 16 -140 56 -163 83 -49 59 -66 167 -38
235 38 91 158 139 346 140 90 0 210 -11 265 -24 22 -5 69 -16 105 -25 36 -8
101 -17 144 -19 229 -9 351 81 403 294 2 8 4 51 4 95 2 90 -22 174 -66 231
-81 107 -277 202 -470 229 -27 4 -59 10 -70 12 -11 3 -103 7 -205 8 -163 3
-199 1 -298 -20z"/>
<path d="M6768 10978 c-128 -17 -224 -90 -269 -206 l-23 -57 -2 -767 c-2 -587
0 -779 10 -820 40 -169 149 -257 331 -266 223 -11 369 90 404 283 15 81 15
1481 0 1562 -37 201 -208 304 -451 271z"/>
<path d="M14967 10984 c-1 -1 -31 -5 -65 -8 -151 -14 -352 -74 -494 -148 -153
-79 -229 -186 -230 -323 0 -117 40 -223 110 -289 107 -102 254 -122 482 -66
146 36 307 51 380 34 103 -23 160 -90 163 -192 2 -43 -1 -56 -12 -54 -7 1 -50
13 -96 27 -45 13 -100 26 -122 30 -21 3 -48 7 -58 9 -156 30 -421 26 -574 -8
-139 -31 -289 -126 -348 -219 -100 -158 -103 -440 -6 -630 38 -76 145 -179
229 -219 102 -50 190 -68 339 -68 328 -2 492 92 549 316 8 32 16 79 18 104 4
44 4 45 41 46 20 0 37 -2 38 -5 0 -3 2 -41 4 -84 11 -244 143 -376 380 -378
158 -1 276 65 340 191 45 88 47 126 42 605 -2 248 -7 466 -10 485 -10 57 -31
175 -32 180 -50 194 -119 326 -227 429 -133 126 -334 206 -573 227 -73 6 -264
12 -268 8z m211 -1149 c47 -19 70 -53 67 -98 -6 -87 -75 -117 -270 -117 -151
-1 -203 9 -247 48 -24 20 -32 73 -19 115 21 62 73 76 276 73 117 -2 159 -7
193 -21z"/>
<path d="M4485 10973 c-16 -2 -57 -8 -90 -14 -185 -34 -298 -169 -299 -358 -1
-69 10 -214 19 -259 14 -76 18 -299 20 -1087 1 -681 5 -911 14 -945 51 -184
175 -282 361 -282 145 -1 239 41 304 135 73 107 70 83 74 665 l3 522 37 0 c37
0 37 -1 50 -52 22 -95 89 -215 157 -284 71 -70 177 -128 264 -144 56 -10 200
-14 237 -6 12 2 37 7 55 10 129 20 277 114 367 232 96 126 171 359 190 592 9
111 9 376 0 467 -24 231 -88 421 -193 570 -52 72 -83 102 -155 147 -107 68
-166 82 -335 82 -131 0 -158 -3 -214 -22 -135 -49 -257 -154 -331 -287 -55
-97 -106 -253 -109 -329 -1 -13 -4 -17 -11 -10 -5 5 -10 78 -11 162 -2 277
-56 407 -195 468 -49 21 -141 33 -209 27z m938 -798 c104 -27 159 -102 158
-215 -1 -192 -100 -261 -368 -255 -212 5 -296 47 -326 164 -34 135 12 252 117
296 81 34 305 39 419 10z"/>
<path d="M9928 10686 c-118 -32 -222 -143 -244 -260 -41 -220 59 -403 251
-459 41 -11 144 -14 580 -13 521 1 531 2 577 23 150 69 226 204 216 383 -6 95
-27 156 -78 220 -31 39 -110 96 -151 108 -13 3 -267 7 -564 9 -414 1 -551 -1
-587 -11z"/>
<path d="M13516 5097 c-50 -50 -22 -127 47 -127 38 0 50 7 66 37 25 49 0 98
-56 109 -26 5 -37 1 -57 -19z"/>
<path d="M13979 5070 c-1 -3 -2 -53 -3 -112 -1 -65 -5 -107 -11 -106 -6 0 -24
7 -41 14 -73 30 -154 -15 -191 -107 -19 -46 -22 -71 -20 -164 2 -95 5 -117 27
-159 34 -68 68 -91 132 -90 44 1 55 5 79 32 l29 32 6 -24 c6 -27 37 -37 86
-27 l32 7 1 343 c0 217 -4 346 -10 351 -11 9 -114 18 -116 10z m-26 -312 c21
-21 22 -32 22 -140 -1 -78 -6 -126 -15 -142 -25 -47 -77 -46 -100 2 -15 33
-22 175 -10 226 16 72 61 96 103 54z"/>
<path d="M5574 5011 c-51 -24 -99 -81 -121 -146 -18 -52 -25 -257 -11 -320 28
-131 115 -204 236 -201 160 5 236 115 237 341 0 167 -34 257 -115 311 -54 36
-164 43 -226 15z m155 -105 c37 -39 49 -99 47 -236 -3 -166 -26 -219 -96 -225
-36 -3 -64 16 -88 58 -26 49 -25 316 2 370 30 60 95 76 135 33z"/>
<path d="M7107 5020 c-35 -11 -93 -54 -113 -84 -62 -96 -78 -305 -32 -431 56
-153 219 -208 351 -118 20 14 37 31 37 37 0 7 -13 25 -29 40 l-30 28 -34 -21
c-115 -71 -187 27 -181 245 5 177 70 249 175 195 23 -12 42 -21 43 -19 1 2 14
18 29 36 l27 34 -24 19 c-54 43 -152 60 -219 39z"/>
<path d="M11346 5016 c-70 -26 -123 -97 -145 -196 -16 -70 -8 -256 14 -317 37
-107 118 -163 230 -158 161 8 239 130 231 360 -2 55 -9 120 -15 145 -16 61
-70 133 -117 155 -50 24 -147 29 -198 11z m121 -92 c14 -4 31 -24 45 -53 20
-41 23 -61 23 -181 0 -183 -20 -235 -94 -245 -81 -10 -118 87 -109 284 8 167
45 219 135 195z"/>
<path d="M12716 5011 c-2 -3 -3 -152 -2 -330 l1 -324 55 1 c30 0 61 1 68 1 9
1 12 31 12 114 l0 113 33 0 c110 2 176 35 212 108 39 79 32 191 -17 247 -47
54 -99 71 -235 74 -68 1 -125 0 -127 -4z m230 -112 c29 -24 41 -66 34 -120 -8
-62 -31 -86 -87 -93 l-43 -4 0 120 0 120 40 -5 c22 -2 47 -11 56 -18z"/>
<path d="M8325 4982 c-67 -6 -73 -10 -73 -44 1 -67 -2 -74 -23 -75 -27 -2 -28
-4 -33 -41 -4 -38 3 -49 33 -53 l24 -4 1 -165 c2 -184 11 -217 70 -242 41 -17
114 -15 153 5 l31 17 -21 39 c-20 36 -24 38 -58 34 -46 -7 -46 -6 -46 175 l-1
141 42 3 c40 3 41 4 47 46 5 37 3 42 -15 43 -80 4 -71 -9 -75 105 -1 11 -7 20
-13 20 -7 0 -26 -2 -43 -4z"/>
<path d="M6655 4869 c-17 -5 -37 -18 -45 -30 -40 -57 -39 -56 -40 -16 0 40 6
37 -82 40 l-33 1 -3 -252 -2 -252 25 -1 c14 -1 36 -1 50 -1 58 0 55 -9 55 140
0 99 4 151 15 184 17 49 49 73 88 66 13 -3 24 0 24 6 0 6 3 34 7 62 8 58 -3
67 -59 53z"/>
<path d="M7923 4855 c-63 -29 -88 -74 -81 -147 6 -61 33 -91 114 -129 87 -41
110 -77 75 -120 -23 -28 -70 -28 -118 1 l-37 22 -28 -33 c-33 -37 -28 -48 36
-82 59 -30 157 -29 213 3 56 31 87 91 78 152 -9 62 -32 88 -119 133 -42 22
-81 46 -85 54 -10 16 -2 53 13 63 19 13 66 9 98 -8 31 -16 32 -16 59 17 l27
33 -22 16 c-64 51 -148 60 -223 25z"/>
<path d="M8654 4860 c-82 -37 -124 -120 -124 -241 0 -183 79 -283 217 -274
129 8 197 112 189 290 -5 116 -41 187 -114 224 -39 20 -125 21 -168 1z m113
-95 c32 -23 47 -148 30 -252 -8 -50 -42 -79 -82 -69 -42 11 -59 106 -46 267 2
25 40 69 60 69 9 0 26 -7 38 -15z"/>
<path d="M9205 4864 c-16 -8 -39 -26 -50 -40 l-20 -25 -1 26 c-1 15 -4 28 -5
30 -6 5 -39 7 -79 6 l-35 -1 0 -247 0 -248 35 -5 c19 -3 48 -3 64 0 l29 5 1
182 c1 178 2 182 25 207 59 63 71 29 71 -206 l0 -193 62 1 63 2 0 178 c1 188
6 213 47 235 42 22 48 -6 48 -218 0 -214 -6 -195 65 -195 68 0 62 -21 61 220
-1 194 -3 220 -20 245 -47 70 -125 70 -189 2 l-23 -26 -14 26 c-25 48 -86 65
-135 39z"/>
<path d="M9795 4865 c-89 -31 -137 -134 -131 -279 7 -164 81 -247 216 -241 53
2 131 32 145 55 4 6 -3 26 -16 44 l-23 34 -42 -20 c-78 -38 -136 -9 -149 75
l-6 37 130 0 131 0 0 65 c0 74 -28 161 -63 192 -52 48 -123 62 -192 38z m105
-95 c11 -11 20 -32 21 -47 0 -16 2 -38 5 -50 4 -22 1 -23 -67 -23 l-71 0 6 38
c3 20 5 40 6 43 0 4 9 18 21 33 24 31 52 33 79 6z"/>
<path d="M10323 4869 c-11 -4 -35 -25 -52 -46 -18 -21 -31 -33 -30 -28 1 6 1
22 0 36 -1 25 -5 27 -47 31 -25 2 -51 0 -57 -4 -18 -11 -18 -498 0 -499 17 -1
55 -1 91 0 l27 1 -1 132 c-2 146 5 192 37 232 16 21 29 27 52 24 30 -3 31 -2
42 55 12 60 8 70 -26 72 -9 1 -25 -2 -36 -6z"/>
<path d="M10525 4866 c-75 -28 -105 -70 -105 -146 0 -71 18 -93 118 -142 75
-37 97 -64 83 -101 -6 -14 -17 -30 -27 -35 -20 -11 -75 0 -111 23 -25 17 -26
17 -55 -14 -36 -38 -29 -52 45 -86 96 -45 222 -14 265 64 25 45 22 122 -5 160
-11 14 -55 44 -98 67 -43 22 -81 49 -85 59 -20 56 33 84 100 54 48 -22 54 -20
76 23 18 34 16 37 -46 65 -44 20 -116 24 -155 9z"/>
<path d="M12425 4871 c-32 -10 -51 -24 -71 -56 l-19 -29 -5 39 c-5 42 -1 40
-100 36 -19 -1 -20 -8 -20 -251 l0 -250 38 -1 c43 -1 86 2 90 6 2 2 3 63 3
135 -2 187 22 250 93 250 33 0 33 1 40 56 8 70 1 79 -49 65z"/>
<path d="M13374 4864 c-17 -8 -39 -29 -50 -47 l-19 -32 -3 38 c-2 20 -7 37
-13 38 -5 0 -25 1 -44 1 -19 0 -41 -1 -49 -1 -11 -1 -14 -46 -14 -250 l-1
-249 37 -4 c20 -1 49 -2 65 0 l27 3 1 137 c1 155 1 157 24 205 16 34 38 47 81
47 19 0 23 8 29 56 4 31 5 58 2 60 -12 12 -47 11 -73 -2z"/>
<path d="M14315 4865 c-51 -18 -99 -72 -116 -133 -8 -26 -14 -88 -13 -138 0
-112 26 -172 93 -219 37 -26 50 -29 109 -29 48 0 79 6 109 22 61 32 62 40 19
95 -13 17 -15 17 -47 -2 -66 -40 -125 -21 -148 48 -20 62 -23 61 119 61 l130
0 0 65 c0 105 -40 189 -107 224 -35 18 -105 21 -148 6z m105 -95 c11 -11 20
-30 21 -42 1 -13 2 -35 3 -50 l3 -28 -69 0 -69 0 6 42 c14 91 59 124 105 78z"/>
<path d="M6025 4860 l-30 -5 0 -205 c1 -236 8 -265 71 -295 31 -15 42 -15 80
-5 25 7 53 23 63 36 20 25 31 22 31 -8 0 -10 8 -18 18 -19 30 -2 87 3 91 7 3
2 5 115 5 249 1 238 0 245 -19 246 -52 3 -97 0 -103 -6 -4 -4 -7 -87 -7 -185
-1 -175 -1 -180 -25 -205 -25 -27 -54 -33 -67 -12 -4 6 -8 100 -9 207 -1 107
-2 197 -3 200 0 3 -16 5 -33 5 -18 0 -47 -2 -63 -5z"/>
<path d="M7417 4859 c-10 -6 -12 -52 -11 -217 1 -184 4 -213 20 -241 40 -67
125 -76 190 -19 l34 30 0 -25 c0 -21 5 -25 37 -29 84 -10 78 -28 77 250 -1
136 -2 249 -3 252 -1 7 -113 1 -120 -6 -3 -3 -6 -86 -6 -184 0 -175 -1 -179
-24 -204 -26 -28 -55 -34 -67 -14 -5 7 -8 99 -9 205 0 105 -3 194 -5 197 -9 9
-98 13 -113 5z"/>
<path d="M11767 4860 c-10 -4 -12 -55 -12 -210 1 -174 4 -210 19 -242 17 -35
65 -68 100 -68 24 0 69 22 100 49 19 17 27 20 23 10 -8 -25 5 -37 43 -39 83
-5 75 -30 75 247 l0 248 -30 5 c-16 3 -46 3 -65 2 l-36 -4 1 -181 c0 -177 0
-182 -24 -210 -29 -34 -62 -33 -71 3 -3 14 -6 107 -5 208 0 176 -1 182 -20
183 -11 0 -35 1 -53 2 -18 1 -38 0 -45 -3z"/>
<path d="M13533 4862 l-33 -3 0 -250 c0 -277 -7 -251 65 -251 72 0 65 -26 65
255 l0 252 -32 0 c-18 0 -48 -1 -65 -3z"/>
<path d="M10825 4475 c-30 -29 -32 -64 -6 -96 19 -24 20 -18 -14 -165 -4 -19
-1 -21 32 -20 l36 1 39 109 c42 118 43 154 5 181 -31 22 -64 18 -92 -10z"/>
</g>
</svg>
